<mxfile host="app.diagrams.net" modified="2023-11-28T13:10:59.537Z" agent="Mozilla/5.0 (Macintosh; Intel Mac OS X 10_15_7) AppleWebKit/605.1.15 (KHTML, like Gecko) Version/17.0 Safari/605.1.15" etag="Wj-VLWAbYxlAIg0MDRIc" version="22.1.4" type="device">
  <diagram name="Page-1" id="0w7_oN8nYP-noP1euQhG">
    <mxGraphModel dx="1026" dy="606" grid="1" gridSize="10" guides="1" tooltips="1" connect="1" arrows="1" fold="1" page="1" pageScale="1" pageWidth="850" pageHeight="1100" math="0" shadow="0">
      <root>
        <mxCell id="0" />
        <mxCell id="1" parent="0" />
        <mxCell id="xoUxwkGVLDQLZeOTKuY8-11" value=":Client" style="shape=umlLifeline;perimeter=lifelinePerimeter;whiteSpace=wrap;html=1;container=1;dropTarget=0;collapsible=0;recursiveResize=0;outlineConnect=0;portConstraint=eastwest;newEdgeStyle={&quot;curved&quot;:0,&quot;rounded&quot;:0};" vertex="1" parent="1">
          <mxGeometry x="70" y="90" width="100" height="670" as="geometry" />
        </mxCell>
        <mxCell id="xoUxwkGVLDQLZeOTKuY8-16" value="" style="html=1;points=[[0,0,0,0,5],[0,1,0,0,-5],[1,0,0,0,5],[1,1,0,0,-5]];perimeter=orthogonalPerimeter;outlineConnect=0;targetShapes=umlLifeline;portConstraint=eastwest;newEdgeStyle={&quot;curved&quot;:0,&quot;rounded&quot;:0};" vertex="1" parent="xoUxwkGVLDQLZeOTKuY8-11">
          <mxGeometry x="45" y="70" width="10" height="80" as="geometry" />
        </mxCell>
        <mxCell id="xoUxwkGVLDQLZeOTKuY8-54" style="edgeStyle=orthogonalEdgeStyle;rounded=0;orthogonalLoop=1;jettySize=auto;html=1;curved=0;" edge="1" parent="1">
          <mxGeometry relative="1" as="geometry">
            <mxPoint x="289.5" y="690" as="sourcePoint" />
            <mxPoint x="119.5" y="690" as="targetPoint" />
          </mxGeometry>
        </mxCell>
        <mxCell id="xoUxwkGVLDQLZeOTKuY8-55" value="Response ok" style="edgeLabel;html=1;align=center;verticalAlign=middle;resizable=0;points=[];" vertex="1" connectable="0" parent="xoUxwkGVLDQLZeOTKuY8-54">
          <mxGeometry x="0.2529" relative="1" as="geometry">
            <mxPoint as="offset" />
          </mxGeometry>
        </mxCell>
        <mxCell id="xoUxwkGVLDQLZeOTKuY8-12" value=":User" style="shape=umlLifeline;perimeter=lifelinePerimeter;whiteSpace=wrap;html=1;container=1;dropTarget=0;collapsible=0;recursiveResize=0;outlineConnect=0;portConstraint=eastwest;newEdgeStyle={&quot;curved&quot;:0,&quot;rounded&quot;:0};" vertex="1" parent="1">
          <mxGeometry x="240" y="90" width="100" height="670" as="geometry" />
        </mxCell>
        <mxCell id="xoUxwkGVLDQLZeOTKuY8-33" value="" style="html=1;points=[[0,0,0,0,5],[0,1,0,0,-5],[1,0,0,0,5],[1,1,0,0,-5]];perimeter=orthogonalPerimeter;outlineConnect=0;targetShapes=umlLifeline;portConstraint=eastwest;newEdgeStyle={&quot;curved&quot;:0,&quot;rounded&quot;:0};" vertex="1" parent="xoUxwkGVLDQLZeOTKuY8-12">
          <mxGeometry x="45" y="140" width="10" height="40" as="geometry" />
        </mxCell>
        <mxCell id="xoUxwkGVLDQLZeOTKuY8-34" value="Valicaciones" style="html=1;align=left;spacingLeft=2;endArrow=block;rounded=0;edgeStyle=orthogonalEdgeStyle;curved=0;rounded=0;" edge="1" target="xoUxwkGVLDQLZeOTKuY8-33" parent="xoUxwkGVLDQLZeOTKuY8-12">
          <mxGeometry relative="1" as="geometry">
            <mxPoint x="50" y="120" as="sourcePoint" />
            <Array as="points">
              <mxPoint x="80" y="150" />
            </Array>
          </mxGeometry>
        </mxCell>
        <mxCell id="xoUxwkGVLDQLZeOTKuY8-35" value="" style="html=1;points=[[0,0,0,0,5],[0,1,0,0,-5],[1,0,0,0,5],[1,1,0,0,-5]];perimeter=orthogonalPerimeter;outlineConnect=0;targetShapes=umlLifeline;portConstraint=eastwest;newEdgeStyle={&quot;curved&quot;:0,&quot;rounded&quot;:0};" vertex="1" parent="xoUxwkGVLDQLZeOTKuY8-12">
          <mxGeometry x="45" y="200" width="10" height="60" as="geometry" />
        </mxCell>
        <mxCell id="xoUxwkGVLDQLZeOTKuY8-43" value="" style="html=1;points=[[0,0,0,0,5],[0,1,0,0,-5],[1,0,0,0,5],[1,1,0,0,-5]];perimeter=orthogonalPerimeter;outlineConnect=0;targetShapes=umlLifeline;portConstraint=eastwest;newEdgeStyle={&quot;curved&quot;:0,&quot;rounded&quot;:0};" vertex="1" parent="xoUxwkGVLDQLZeOTKuY8-12">
          <mxGeometry x="45" y="280" width="10" height="60" as="geometry" />
        </mxCell>
        <mxCell id="xoUxwkGVLDQLZeOTKuY8-45" value="" style="html=1;points=[[0,0,0,0,5],[0,1,0,0,-5],[1,0,0,0,5],[1,1,0,0,-5]];perimeter=orthogonalPerimeter;outlineConnect=0;targetShapes=umlLifeline;portConstraint=eastwest;newEdgeStyle={&quot;curved&quot;:0,&quot;rounded&quot;:0};" vertex="1" parent="xoUxwkGVLDQLZeOTKuY8-12">
          <mxGeometry x="45" y="430" width="10" height="80" as="geometry" />
        </mxCell>
        <mxCell id="xoUxwkGVLDQLZeOTKuY8-13" value=":JWT" style="shape=umlLifeline;perimeter=lifelinePerimeter;whiteSpace=wrap;html=1;container=1;dropTarget=0;collapsible=0;recursiveResize=0;outlineConnect=0;portConstraint=eastwest;newEdgeStyle={&quot;curved&quot;:0,&quot;rounded&quot;:0};" vertex="1" parent="1">
          <mxGeometry x="400" y="90" width="100" height="680" as="geometry" />
        </mxCell>
        <mxCell id="xoUxwkGVLDQLZeOTKuY8-52" value="" style="html=1;points=[[0,0,0,0,5],[0,1,0,0,-5],[1,0,0,0,5],[1,1,0,0,-5]];perimeter=orthogonalPerimeter;outlineConnect=0;targetShapes=umlLifeline;portConstraint=eastwest;newEdgeStyle={&quot;curved&quot;:0,&quot;rounded&quot;:0};" vertex="1" parent="xoUxwkGVLDQLZeOTKuY8-13">
          <mxGeometry x="45" y="520" width="10" height="80" as="geometry" />
        </mxCell>
        <mxCell id="xoUxwkGVLDQLZeOTKuY8-14" value=":Phone" style="shape=umlLifeline;perimeter=lifelinePerimeter;whiteSpace=wrap;html=1;container=1;dropTarget=0;collapsible=0;recursiveResize=0;outlineConnect=0;portConstraint=eastwest;newEdgeStyle={&quot;curved&quot;:0,&quot;rounded&quot;:0};" vertex="1" parent="1">
          <mxGeometry x="570" y="90" width="100" height="670" as="geometry" />
        </mxCell>
        <mxCell id="xoUxwkGVLDQLZeOTKuY8-40" value="" style="html=1;points=[[0,0,0,0,5],[0,1,0,0,-5],[1,0,0,0,5],[1,1,0,0,-5]];perimeter=orthogonalPerimeter;outlineConnect=0;targetShapes=umlLifeline;portConstraint=eastwest;newEdgeStyle={&quot;curved&quot;:0,&quot;rounded&quot;:0};" vertex="1" parent="xoUxwkGVLDQLZeOTKuY8-14">
          <mxGeometry x="45" y="270" width="10" height="80" as="geometry" />
        </mxCell>
        <mxCell id="xoUxwkGVLDQLZeOTKuY8-47" style="edgeStyle=orthogonalEdgeStyle;rounded=0;orthogonalLoop=1;jettySize=auto;html=1;curved=0;" edge="1" parent="1" source="xoUxwkGVLDQLZeOTKuY8-15" target="xoUxwkGVLDQLZeOTKuY8-12">
          <mxGeometry relative="1" as="geometry">
            <mxPoint x="810" y="485" as="sourcePoint" />
            <mxPoint x="310" y="460" as="targetPoint" />
            <Array as="points">
              <mxPoint x="680" y="480" />
              <mxPoint x="680" y="480" />
            </Array>
          </mxGeometry>
        </mxCell>
        <mxCell id="xoUxwkGVLDQLZeOTKuY8-50" value="return exitoso" style="edgeLabel;html=1;align=center;verticalAlign=middle;resizable=0;points=[];" vertex="1" connectable="0" parent="xoUxwkGVLDQLZeOTKuY8-47">
          <mxGeometry x="0.082" y="-3" relative="1" as="geometry">
            <mxPoint x="1" as="offset" />
          </mxGeometry>
        </mxCell>
        <mxCell id="xoUxwkGVLDQLZeOTKuY8-15" value=":H2" style="shape=umlLifeline;perimeter=lifelinePerimeter;whiteSpace=wrap;html=1;container=1;dropTarget=0;collapsible=0;recursiveResize=0;outlineConnect=0;portConstraint=eastwest;newEdgeStyle={&quot;curved&quot;:0,&quot;rounded&quot;:0};" vertex="1" parent="1">
          <mxGeometry x="740" y="90" width="100" height="670" as="geometry" />
        </mxCell>
        <mxCell id="xoUxwkGVLDQLZeOTKuY8-49" value="" style="html=1;points=[[0,0,0,0,5],[0,1,0,0,-5],[1,0,0,0,5],[1,1,0,0,-5]];perimeter=orthogonalPerimeter;outlineConnect=0;targetShapes=umlLifeline;portConstraint=eastwest;newEdgeStyle={&quot;curved&quot;:0,&quot;rounded&quot;:0};" vertex="1" parent="xoUxwkGVLDQLZeOTKuY8-15">
          <mxGeometry x="45" y="360" width="10" height="80" as="geometry" />
        </mxCell>
        <mxCell id="xoUxwkGVLDQLZeOTKuY8-17" style="edgeStyle=orthogonalEdgeStyle;rounded=0;orthogonalLoop=1;jettySize=auto;html=1;curved=0;" edge="1" parent="1" source="xoUxwkGVLDQLZeOTKuY8-16" target="xoUxwkGVLDQLZeOTKuY8-12">
          <mxGeometry relative="1" as="geometry">
            <Array as="points">
              <mxPoint x="240" y="210" />
              <mxPoint x="240" y="210" />
            </Array>
          </mxGeometry>
        </mxCell>
        <mxCell id="xoUxwkGVLDQLZeOTKuY8-18" value="Post /auth/signup" style="edgeLabel;html=1;align=center;verticalAlign=middle;resizable=0;points=[];" vertex="1" connectable="0" parent="xoUxwkGVLDQLZeOTKuY8-17">
          <mxGeometry x="0.1793" y="-4" relative="1" as="geometry">
            <mxPoint x="-22" y="-4" as="offset" />
          </mxGeometry>
        </mxCell>
        <mxCell id="xoUxwkGVLDQLZeOTKuY8-38" style="edgeStyle=orthogonalEdgeStyle;rounded=0;orthogonalLoop=1;jettySize=auto;html=1;curved=0;" edge="1" parent="1" source="xoUxwkGVLDQLZeOTKuY8-35" target="xoUxwkGVLDQLZeOTKuY8-15">
          <mxGeometry relative="1" as="geometry">
            <Array as="points">
              <mxPoint x="660" y="330" />
              <mxPoint x="660" y="330" />
            </Array>
          </mxGeometry>
        </mxCell>
        <mxCell id="xoUxwkGVLDQLZeOTKuY8-39" value="Registra usuario" style="edgeLabel;html=1;align=center;verticalAlign=middle;resizable=0;points=[];" vertex="1" connectable="0" parent="xoUxwkGVLDQLZeOTKuY8-38">
          <mxGeometry x="-0.1547" y="-4" relative="1" as="geometry">
            <mxPoint as="offset" />
          </mxGeometry>
        </mxCell>
        <mxCell id="xoUxwkGVLDQLZeOTKuY8-41" style="edgeStyle=orthogonalEdgeStyle;rounded=0;orthogonalLoop=1;jettySize=auto;html=1;curved=0;" edge="1" parent="1" source="xoUxwkGVLDQLZeOTKuY8-40" target="xoUxwkGVLDQLZeOTKuY8-15">
          <mxGeometry relative="1" as="geometry">
            <Array as="points">
              <mxPoint x="740" y="400" />
              <mxPoint x="740" y="400" />
            </Array>
          </mxGeometry>
        </mxCell>
        <mxCell id="xoUxwkGVLDQLZeOTKuY8-42" value="Reegistra Phone" style="edgeLabel;html=1;align=center;verticalAlign=middle;resizable=0;points=[];" vertex="1" connectable="0" parent="xoUxwkGVLDQLZeOTKuY8-41">
          <mxGeometry x="-0.4407" y="-2" relative="1" as="geometry">
            <mxPoint x="29" y="-2" as="offset" />
          </mxGeometry>
        </mxCell>
        <mxCell id="xoUxwkGVLDQLZeOTKuY8-44" style="edgeStyle=orthogonalEdgeStyle;rounded=0;orthogonalLoop=1;jettySize=auto;html=1;curved=0;" edge="1" parent="1" source="xoUxwkGVLDQLZeOTKuY8-43" target="xoUxwkGVLDQLZeOTKuY8-40">
          <mxGeometry relative="1" as="geometry" />
        </mxCell>
        <mxCell id="xoUxwkGVLDQLZeOTKuY8-46" style="edgeStyle=orthogonalEdgeStyle;rounded=0;orthogonalLoop=1;jettySize=auto;html=1;curved=0;" edge="1" parent="1" source="xoUxwkGVLDQLZeOTKuY8-45" target="xoUxwkGVLDQLZeOTKuY8-13">
          <mxGeometry relative="1" as="geometry">
            <Array as="points">
              <mxPoint x="380" y="560" />
              <mxPoint x="380" y="560" />
            </Array>
          </mxGeometry>
        </mxCell>
        <mxCell id="xoUxwkGVLDQLZeOTKuY8-48" value="Obtener token" style="edgeLabel;html=1;align=center;verticalAlign=middle;resizable=0;points=[];" vertex="1" connectable="0" parent="xoUxwkGVLDQLZeOTKuY8-46">
          <mxGeometry x="-0.0032" y="1" relative="1" as="geometry">
            <mxPoint as="offset" />
          </mxGeometry>
        </mxCell>
        <mxCell id="xoUxwkGVLDQLZeOTKuY8-53" style="edgeStyle=orthogonalEdgeStyle;rounded=0;orthogonalLoop=1;jettySize=auto;html=1;curved=0;" edge="1" parent="1" source="xoUxwkGVLDQLZeOTKuY8-52" target="xoUxwkGVLDQLZeOTKuY8-12">
          <mxGeometry relative="1" as="geometry">
            <Array as="points">
              <mxPoint x="340" y="650" />
              <mxPoint x="340" y="650" />
            </Array>
          </mxGeometry>
        </mxCell>
        <mxCell id="xoUxwkGVLDQLZeOTKuY8-56" value="return token" style="edgeLabel;html=1;align=center;verticalAlign=middle;resizable=0;points=[];" vertex="1" connectable="0" parent="xoUxwkGVLDQLZeOTKuY8-53">
          <mxGeometry x="-0.1383" y="-3" relative="1" as="geometry">
            <mxPoint as="offset" />
          </mxGeometry>
        </mxCell>
      </root>
    </mxGraphModel>
  </diagram>
</mxfile>
